<svg width="40" height="40" viewBox="0 0 40 40" fill="none" xmlns="http://www.w3.org/2000/svg" role="img" aria-labelledby="baraza-logo-title baraza-logo-desc">
  <title id="baraza-logo-title">Baraza logo</title>
  <desc id="baraza-logo-desc">Community gathered around a fire, led by a crowned figure.</desc>
  <rect width="40" height="40" rx="9" fill="#0D110B"/>
  <path d="M20 8C19 11 17 13.5 17 16.5C17 18.4 18.3 20 20 20S23 18.4 23 16.5C23 13.5 21 11 20 8Z" fill="#F64804"/>
  <path d="M17 12.5C16.2 14 15.5 15.5 15.5 17C15.5 18.1 16.4 19 17.5 19S19.5 18.1 19.5 17C19.5 15.5 18.5 14 17 12.5Z" fill="#FFB300"/>
  <path d="M23 12.5C23.8 14 24.5 15.5 24.5 17C24.5 18.1 23.6 19 22.5 19S20.5 18.1 20.5 17C20.5 15.5 21.5 14 23 12.5Z" fill="#FFB300"/>
  <path d="M20 14C19.4 15.2 19 16.2 19 17.2C19 17.9 19.4 18.5 20 18.5S21 17.9 21 17.2C21 16.2 20.6 15.2 20 14Z" fill="#FFF6D8"/>
  <path d="M11.5 26C14 22.5 17.5 21.5 20 21.5C22.5 21.5 26 22.5 28.5 26" stroke="#FFB300" stroke-width="1" stroke-opacity="0.35" stroke-linecap="round"/>
  <circle cx="11" cy="27.5" r="2" fill="#FFB300" opacity="0.65"/>
  <rect x="9" y="30" width="4" height="4" rx="1" fill="#FFB300" opacity="0.65"/>
  <circle cx="20" cy="26.5" r="2.2" fill="#F64804"/>
  <rect x="17.9" y="29.2" width="4.2" height="4.5" rx="1" fill="#F64804"/>
  <path d="M17.5 24.5L18.8 23L20 24.8L21.2 23L22.5 24.5" stroke="#FFB300" stroke-width="1.3" stroke-linecap="round" stroke-linejoin="round"/>
  <circle cx="29" cy="27.5" r="2" fill="#FFB300" opacity="0.65"/>
  <rect x="27" y="30" width="4" height="4" rx="1" fill="#FFB300" opacity="0.65"/>
  <rect x="7" y="36.5" width="26" height="1.5" rx="0.75" fill="#FFB300"/>
</svg>
